<svg id="レイヤー_1" data-name="レイヤー 1" xmlns="http://www.w3.org/2000/svg" viewBox="0 0 400 128"><defs><style>.cls-1,.cls-3{fill:#fff;}.cls-2{fill:none;stroke-linecap:round;stroke-width:1.5px;stroke-dasharray:12 2 2 2 2 2;}.cls-2,.cls-3{stroke:#fff;stroke-miterlimit:10;}</style></defs><title>title_white</title><path class="cls-1" d="M18.35,28.34c3.31,1,5.39,4.2,6.35,8.89,1.39,6.71,2.13,9.43,3,11.07h-2c-.64-1.2-1.55-4.91-2.61-10.14-1.28-6.05-3.84-9.21-9.39-9.21H6.88V48.29H5V7.68a41.09,41.09,0,0,1,8.16-.87c5.12,0,8.27,1.14,10.45,3.49a10.45,10.45,0,0,1,2.72,7.2c0,5.56-3.15,9.05-8,10.74Zm-4.85-1c6.45,0,10.88-3.82,10.88-9.49,0-7.31-5.6-9.49-11.47-9.49a24.72,24.72,0,0,0-6,.71V27.36Z"/><path class="cls-1" d="M35.25,12.85a2,2,0,0,1-1.87-2.18,2.06,2.06,0,0,1,1.92-2.18,2,2,0,0,1,1.87,2.18A2,2,0,0,1,35.25,12.85Zm1,35.44H34.35V19.07h1.87Z"/><path class="cls-1" d="M65.86,48.29H63.52L51.15,32.43l-3,3.16v12.7H46.24V4.95h1.87V33.52h.11c.69-.82,2-2.13,2.88-3.11L61.81,19.07h2.4L52.43,31.23Z"/><path class="cls-1" d="M91.62,41.53c0,2.4.05,4.52.21,6.76H90.08L89.86,43h-.11a10.81,10.81,0,0,1-9.81,6c-3.31,0-9.81-1.53-9.81-12.87v-17H72V35.48c0,7.36,2.61,11.89,8.21,11.89,4.91,0,9.55-4.74,9.55-10.14V19.07h1.87Z"/><path class="cls-1" d="M125.44,33.41c0,11-7.31,15.54-13.39,15.54-7.31,0-12.91-5.89-12.91-15,0-10.09,6.45-15.54,13.23-15.54C120.32,18.42,125.44,24.58,125.44,33.41ZM112.43,20c-7.52,0-11.36,6.87-11.36,13.79,0,7.25,4.85,13.58,11,13.58s11.41-5.67,11.41-13.74C123.52,27.41,120.21,20,112.43,20Z"/><path class="cls-1" d="M33,113H31V92h-24V113H5.16V71.91H7.08V90.33H31V71.91H33Z"/><path class="cls-1" d="M60.56,106.13A42.29,42.29,0,0,0,61,113H59.19l-.44-4.41h-.11a11.21,11.21,0,0,1-9.49,5.07c-5.92,0-8.5-4.09-8.5-7.85,0-6.59,5.81-10.73,18-10.57,0-3.32,0-10.46-7.9-10.46a12.72,12.72,0,0,0-7.24,2.34l-.77-1.42a14.82,14.82,0,0,1,8.17-2.56c8.28,0,9.65,6.43,9.65,11.39Zm-2-9.15c-5.71-.11-16,.76-16,8.55A6.16,6.16,0,0,0,49,112.12c7,0,9.54-5.72,9.54-8.12Z"/><path class="cls-1" d="M82.89,86.62a9.45,9.45,0,0,0-5.43-1.85c-4,0-6.42,2.72-6.42,5.56,0,3.32,2.19,4.9,6.25,6.59,4.66,1.85,7.52,4.09,7.52,8.55,0,5.07-4.06,8.17-9.49,8.17a13.07,13.07,0,0,1-7.19-2.07l.93-1.58a13.73,13.73,0,0,0,6.36,2.07c3.73,0,7.41-2.29,7.41-6.27,0-3.49-2.14-5.45-6.47-7.19-4.72-1.85-7.3-4.3-7.3-7.79,0-4,3.13-7.63,8.56-7.63a10.52,10.52,0,0,1,6.25,2Z"/><path class="cls-1" d="M112.78,111.69c-.82.49-3.79,2-9.11,2-8.23,0-13.38-6.16-13.38-14.66,0-10.13,5.76-15.8,12.95-15.8,8.72,0,11.19,7.57,11.19,13.57a4.68,4.68,0,0,1-.05.93H92.27c-.06,9.15,4.28,14.39,11.68,14.39a16.57,16.57,0,0,0,8.17-1.85ZM112.29,96c.05-3.27-1.37-11.28-9.27-11.28-6.86,0-10,6.43-10.53,11.28Z"/><path class="cls-1" d="M145.2,83.84c-.16,2.23-.22,4.52-.22,7.36v17.55c0,7.79-1.7,11.39-4,13.62a14.18,14.18,0,0,1-9.6,3.43,19.35,19.35,0,0,1-9.16-2.62l.93-1.47a16,16,0,0,0,8.56,2.51c7.13,0,11.36-4.74,11.36-13V107h-.16a11.38,11.38,0,0,1-10.53,6.21c-7.46,0-12.67-6.59-12.67-14.44,0-10.52,6.75-15.58,13.17-15.58,6.09,0,9.16,3.43,10.26,5.88h.11l.16-5.23ZM143.06,95a9.28,9.28,0,0,0-.33-2.94c-1.32-3.71-4.5-7.25-9.65-7.25-7,0-11.41,6.54-11.41,13.62,0,7.79,4.66,13.24,11.19,13.24,5.87,0,10.2-5.56,10.2-10.62Z"/><path class="cls-1" d="M172.57,106.13A42.29,42.29,0,0,0,173,113H171.2l-.44-4.41h-.11a11.21,11.21,0,0,1-9.49,5.07c-5.92,0-8.5-4.09-8.5-7.85,0-6.59,5.81-10.73,18-10.57,0-3.32,0-10.46-7.9-10.46a12.72,12.72,0,0,0-7.24,2.34l-.77-1.42a14.82,14.82,0,0,1,8.17-2.56c8.28,0,9.65,6.43,9.65,11.39Zm-2-9.15c-5.71-.11-16,.76-16,8.55a6.16,6.16,0,0,0,6.42,6.59c7,0,9.54-5.72,9.54-8.12Z"/><path class="cls-1" d="M220,83.84,209.88,113h-1.59l-6-17.22c-1.32-3.71-2.25-6.37-3.18-9.92H199c-.93,3.43-2.14,6.43-3.46,9.92L189.25,113H187.6l-9.27-29.21h2.25l5.32,17.38c1,3.49,1.87,6.27,2.63,9h.11c.77-2.62,1.81-5.5,3.07-8.94l6.2-17.44h2.19l6.09,17.27c1.26,3.6,2.14,6.38,2.91,9.1h.22c.66-2.62,1.59-5.45,2.74-9l5.65-17.38Z"/><path class="cls-1" d="M243.17,106.13a42.18,42.18,0,0,0,.44,6.92H241.8l-.44-4.41h-.11a11.21,11.21,0,0,1-9.49,5.07c-5.92,0-8.5-4.09-8.5-7.85,0-6.59,5.81-10.73,18-10.57,0-3.32,0-10.46-7.9-10.46a12.72,12.72,0,0,0-7.24,2.34l-.77-1.42a14.82,14.82,0,0,1,8.17-2.56c8.28,0,9.65,6.43,9.65,11.39Zm-2-9.15c-5.71-.11-16,.76-16,8.55a6.16,6.16,0,0,0,6.42,6.59c7,0,9.54-5.72,9.54-8.12Z"/><path class="cls-1" d="M282.34,34c-.17.22-.45.27-.9.22a136.88,136.88,0,0,1-14.62,8.23A40.73,40.73,0,0,0,286,51.49a7.41,7.41,0,0,0-1.06,1.43c-13.33-3-23.3-10.49-28-21.8h-9.86V49c5.43-1,11.65-2.09,17.7-3.24l.11,1.43C255.52,49,245.5,50.94,239.45,52a.9.9,0,0,1-.62.77l-1.06-2.14,7.62-1.32V31.13H234.8V29.48h10.58V4.77H280.1V6.42h-33V12.9h31.25v1.65H247.06v6.53h31.25v1.65H247.06v6.75h38.19v1.65H258.54a33.57,33.57,0,0,0,7.22,10.32,113.39,113.39,0,0,0,14.67-8.67Z"/><path class="cls-1" d="M317.9,12.51c-.11.38-.45.55-.9.6,5.49,8.23,16,16.91,25,21.36a6.4,6.4,0,0,0-1.12,1.37c-9.13-4.78-19.49-13.23-25.09-21.58-4.7,7.63-14.39,16.63-24.47,22.13-.22-.27-.67-.82-1.06-1.21,10.08-5.38,20-14.55,24.64-22.84Zm-8-7.8c-.11.22-.39.38-1.06.33A62.79,62.79,0,0,1,294.1,18.5a8.62,8.62,0,0,0-1.34-1,56.16,56.16,0,0,0,14.9-13.67Zm-9.24,48.15V31H331.9V52.65h-1.68V50.23H302.34v2.64Zm29.57-20.2H302.34V48.58h27.89ZM323.84,3.73c5.77,3.84,12.54,9.39,15.79,13.18l-1.34,1.15c-3.19-3.79-9.91-9.44-15.74-13.34Z"/><path class="cls-1" d="M353,5.54l2.52.22c-.06.27-.28.49-.84.55v18c0,10.54-.9,20.64-8.12,28.82a5.91,5.91,0,0,0-1.29-1c6.94-7.91,7.73-17.73,7.73-27.78Zm18.82,2.2,2.52.22c-.06.27-.28.49-.84.55V48.25h-1.68Zm20.94-2.47,2.52.22c-.06.27-.28.49-.84.55V52.7h-1.68Z"/><path class="cls-1" d="M327.87,87.22h-9.24C318,94,315.83,97.8,308.38,100a7.16,7.16,0,0,0-1-1.26,14.23,14.23,0,0,1,.11,1.53c0,6.74-4,6.74-6.89,6.74-.73,0-1.46,0-2.07-.05a3.63,3.63,0,0,0-.67-1.64,27.56,27.56,0,0,0,2.91.16c2.35,0,5,0,5-5.21-.06-3.45-1.79-7.45-6.83-12.33,2.29-4.71,4.48-9.75,6-13.7H294.27v46.36h-1.68v-48H306l.34-.11,1.23.93a.63.63,0,0,1-.45.27c-1.62,4-4,9.37-6.22,14,4.09,4,6,7.62,6.44,10.85,6.78-1.81,9-4.93,9.52-11.34h-9.69V85.58h15.57V77.91H309.84V76.26h12.94v-6l2.52.22c-.06.27-.28.49-.84.55v5.26h13.38v1.64H324.46v7.67h16.8v1.64h-11.7v7.62c0,1,.28,1.15,2.07,1.15H338c1.46,0,1.74-.49,1.85-5.15a8.38,8.38,0,0,0,1.63.66c-.17,4.93-.79,6.08-3.25,6.08h-6.61c-3,0-3.75-.44-3.75-2.74Zm-3.42,30.19h17.36v1.64H305.53v-1.64h17.25V106.95H309.5v-1.64h13.27v-8l2.52.22c-.06.27-.28.49-.84.55v7.23h13.78v1.64H324.46Z"/><path class="cls-1" d="M397.25,98.62H374.07c3.81,10.79,12,17.92,24.25,20.6a7.09,7.09,0,0,0-1.12,1.42c-12.32-3.12-20.83-10.52-24.75-22h-.73c-1.85,8.82-7.62,16.66-24.19,22.19a6.22,6.22,0,0,0-1-1.37c16-5.32,21.56-12.6,23.46-20.82H346.8V97h6.61V78.46h17.47V70.13l2.52.22c-.06.27-.28.49-.84.55v7.56h18.59V97h6.1ZM355.09,97h15.23a46.57,46.57,0,0,0,.56-7.94V80.1H355.09ZM372.56,80.1V89a53.18,53.18,0,0,1-.5,7.94h17.42V80.1Z"/><line class="cls-2" y1="64.31" x2="400" y2="64.31"/><line class="cls-2" x1="272" y1="64.31" x2="272" y2="128.31"/><line class="cls-2" x1="224" y1="0.31" x2="224" y2="64.31"/><line class="cls-2" x1="144" y1="0.31" x2="144" y2="64.31"/><rect class="cls-3" x="160" y="8.31" width="34.27" height="6.85"/><rect class="cls-3" x="160" y="15.16" width="6.85" height="41.13"/><rect class="cls-3" x="166.85" y="49.44" width="27.42" height="6.85"/><rect class="cls-3" x="187.42" y="35.73" width="6.85" height="13.71"/><rect class="cls-3" x="173.71" y="35.73" width="13.71" height="6.85"/><rect class="cls-3" x="173.71" y="22.02" width="34.27" height="6.85"/><rect class="cls-3" x="201.15" y="8.31" width="6.85" height="34.27"/></svg>