<?xml version="1.0" standalone="no"?>
<!DOCTYPE svg PUBLIC "-//W3C//DTD SVG 20010904//EN"
 "http://www.w3.org/TR/2001/REC-SVG-20010904/DTD/svg10.dtd">
<svg version="1.0" xmlns="http://www.w3.org/2000/svg"
 width="512.000000pt" height="512.000000pt" viewBox="0 0 512.000000 512.000000"
 preserveAspectRatio="xMidYMid meet">
<metadata>
Created by potrace 1.11, written by Peter Selinger 2001-2013
</metadata>
<g transform="translate(0.000000,512.000000) scale(0.100000,-0.100000)"
fill="#000000" stroke="none">
<path d="M0 2560 l0 -2560 1832 2 1831 3 1 1080 c1 594 -1 1088 -3 1098 -3 16
-16 18 -120 17 -64 0 -197 0 -296 0 -99 0 -315 1 -480 1 -165 0 -381 -1 -480
0 -99 0 -245 -1 -325 -1 -80 0 -223 0 -318 0 -95 0 -176 -1 -180 -4 -9 -5 -7
-724 2 -733 3 -4 331 -7 729 -7 l722 -1 3 -200 c3 -285 2 -508 -3 -514 -10 -9
-2167 -6 -2173 3 -11 18 -6 3627 5 3634 6 4 664 7 1462 6 l1451 -1 1 21 c1 27
1 698 0 709 -1 4 -824 7 -1831 7 l-1830 0 0 -2560z"/>
<path d="M4385 4392 l0 -729 -1453 1 c-800 1 -1459 -2 -1465 -6 -11 -6 -16
-723 -5 -734 3 -3 66 -5 139 -5 74 0 197 0 274 1 77 0 221 0 320 0 99 -1 315
-1 480 -1 919 1 1189 0 1470 -2 l240 -2 0 -727 c0 -723 0 -728 20 -729 67 -3
692 -4 703 -1 9 3 12 379 12 1833 l0 1829 -368 0 -367 0 0 -728z"/>
</g>
</svg>
